<?xml version="1.0" encoding="UTF-8"?>
<svg version="1.1" xmlns="http://www.w3.org/2000/svg" width="2048" height="2048">
<path d="M0 0 C1.74174401 0.58921951 3.4835246 1.17833088 5.2253418 1.76733398 C7.0515088 2.42264101 8.87607009 3.08243555 10.69921875 3.74609375 C11.70652039 4.10875336 12.71382202 4.47141296 13.75164795 4.84506226 C15.9258315 5.62837952 18.09932465 6.41361528 20.27218628 7.20059204 C23.77325798 8.46855856 27.2761408 9.73140228 30.77954102 10.99291992 C35.71875694 12.77157926 40.65739764 14.55182239 45.59570312 16.33300781 C57.2012726 20.51621671 68.81920712 24.66479008 80.4375 28.8125 C81.58307373 29.22167664 82.72864746 29.63085327 83.90893555 30.0524292 C103.3166002 36.98417323 122.73769864 43.87768389 142.1620903 50.76236343 C161.69656266 57.68615976 181.21598294 64.65070121 200.72103882 71.65701294 C218.79829958 78.14931322 236.89526362 84.58485713 255 91 C274.5340686 97.92166256 294.05738317 104.87203427 313.5625 111.875 C329.47070383 117.58652959 345.38445571 123.28151909 361.3125 128.9375 C377.98515793 134.8582792 394.65106833 140.79769949 411.3125 146.75 C412.48871918 147.17016388 413.66493835 147.59032776 414.87680054 148.02322388 C426.71704248 152.25281249 438.55677453 156.48382551 450.39581299 160.71678162 C456.13870302 162.77000328 461.88179259 164.82266629 467.625 166.875 C469.34000702 167.48787369 469.34000702 167.48787369 471.08966064 168.11312866 C490.43442433 175.02478471 509.79291665 181.89726804 529.15510941 188.7598877 C549.07452155 195.82022036 568.97897274 202.92111491 588.86956787 210.06231689 C603.67546237 215.37792403 618.48821146 220.67340344 633.3125 225.9375 C659.55413506 235.25676617 685.779183 244.62233449 712 254 C713.04575195 254.37392883 714.09150391 254.74785767 715.16894531 255.13311768 C720.88664203 257.17769263 726.6038427 259.22364172 732.32012939 261.27215576 C734.0090701 261.87725965 735.69815462 262.4819623 737.38739014 263.08624268 C739.67276128 263.90393369 741.95755905 264.72320538 744.2421875 265.54296875 C744.9069812 265.78048355 745.5717749 266.01799835 746.25671387 266.26271057 C748.5603477 267.09082217 750.80825375 267.90412688 753 269 C752.36484799 283.02401742 750.74105541 296.90785857 749.11611938 310.84570312 C748.813984 313.46417639 748.51218243 316.08268621 748.21078527 318.70124435 C747.55632298 324.3814026 746.89878284 330.06119779 746.2391758 335.7407608 C745.25650902 344.20217934 744.27870452 352.66415494 743.30185752 361.12624708 C741.64908174 375.44250028 739.99241242 389.75830041 738.3335762 404.07385254 C736.66888827 418.44007367 735.00607709 432.80651018 733.3455925 447.17321777 C733.24121921 448.07626122 733.13684592 448.97930466 733.0293098 449.90971306 C732.49830563 454.50408023 731.96733493 459.09845127 731.43637793 463.69282389 C727.65912264 496.37697764 723.87808395 529.06069271 720.09472656 561.74414062 C716.50763129 592.73225042 712.92168233 623.72049234 709.33789062 654.70898438 C709.22976123 655.64395849 709.12163183 656.57893261 709.01022579 657.54223928 C707.376504 671.66877239 705.74291517 685.79532088 704.109375 699.921875 C704.00153764 700.85443094 703.89370028 701.78698687 703.78259512 702.74780208 C703.01947719 709.34709592 702.25636383 715.94639029 701.4932518 722.54568481 C701.38534637 723.47883588 701.27744094 724.41198694 701.16626564 725.37341531 C700.83937697 728.20030293 700.51248864 731.0271906 700.18560052 733.85407829 C700.07775535 734.78670955 699.96991018 735.7193408 699.85879698 736.68023361 C699.31457836 741.38657663 698.77036531 746.0929203 698.2261624 750.79926515 C695.83772183 771.45483523 693.44899557 792.1103722 691.05939484 812.76580811 C681.66578942 893.96322122 672.28328939 975.16188349 662.94065501 1056.36517906 C662.52090869 1060.01341097 662.1011287 1063.661639 661.68134782 1067.30986694 C657.81264551 1100.93201457 653.94497141 1134.55427999 650.08289322 1168.17718923 C648.65070862 1180.64545542 647.21756391 1193.11361102 645.7836962 1205.58168375 C644.88262593 1213.41731492 643.9825097 1221.25305444 643.08373016 1229.0889487 C642.41605424 1234.90928188 641.74683688 1240.72943713 641.07701556 1246.54952383 C640.80639825 1248.90319512 640.53630739 1251.25692701 640.26678534 1253.61072397 C639.902222 1256.7939599 639.53579471 1259.97697585 639.16889 1263.15994263 C639.06401948 1264.07969372 638.95914896 1264.99944481 638.85110055 1265.94706714 C638.57884397 1268.29962755 638.29310288 1270.64996005 638 1273 C637.78895297 1274.73027844 637.78895297 1274.73027844 637.57364237 1276.49551201 C637 1279 637 1279 634.65283203 1280.91186523 C633.61497559 1281.45528564 632.57711914 1281.99870605 631.5078125 1282.55859375 C630.93936615 1282.86422745 630.3709198 1283.16986115 629.7852478 1283.48475647 C627.90821168 1284.48863592 626.01714175 1285.46243758 624.125 1286.4375 C622.80152751 1287.13965701 621.47927588 1287.84411961 620.15820312 1288.55078125 C617.43701583 1290.00442593 614.71109071 1291.44853617 611.98144531 1292.88623047 C606.10070232 1295.99453209 600.30378421 1299.25065871 594.5 1302.5 C592.27133689 1303.74048846 590.04216584 1304.98006477 587.8125 1306.21875 C586.69875 1306.8375 585.585 1307.45625 584.4375 1308.09375 C577.85397194 1311.74461556 571.26000095 1315.37654716 564.66699219 1319.01025391 C555.93519182 1323.82322227 547.21331002 1328.65360391 538.5 1333.5 C529.17698064 1338.68552014 519.84295489 1343.85052972 510.5 1349 C496.64889395 1356.6347533 482.82157204 1364.31190237 469 1372 C454.56889842 1380.02714174 440.12972323 1388.03899193 425.6675415 1396.00997925 C416.93555554 1400.82303501 408.21348898 1405.65350437 399.5 1410.5 C389.5672747 1416.02464229 379.62101873 1421.52413752 369.66699219 1427.01025391 C360.93519182 1431.82322227 352.21331002 1436.65360391 343.5 1441.5 C334.17698064 1446.68552014 324.84295489 1451.85052972 315.5 1457 C301.64889395 1464.6347533 287.82157204 1472.31190237 274 1480 C259.56889842 1488.02714174 245.12972323 1496.03899193 230.6675415 1504.00997925 C221.93555554 1508.82303501 213.21348898 1513.65350437 204.5 1518.5 C194.5672747 1524.02464229 184.62101873 1529.52413752 174.66699219 1535.01025391 C165.93519182 1539.82322227 157.21331002 1544.65360391 148.5 1549.5 C139.17698064 1554.68552014 129.84295489 1559.85052972 120.5 1565 C106.64889395 1572.6347533 92.82157204 1580.31190237 79 1588 C65.17842617 1595.68809863 51.35090508 1603.3648803 37.5 1611 C28.25553992 1616.09635692 19.01489206 1621.19947534 9.78491211 1626.32202148 C8.04506271 1627.28749392 6.30476383 1628.25215621 4.56445312 1629.21679688 C3.51193359 1629.80138672 2.45941406 1630.38597656 1.375 1630.98828125 C0.45460938 1631.49915283 -0.46578125 1632.01002441 -1.4140625 1632.53637695 C-4.04853059 1633.96611083 -4.04853059 1633.96611083 -6.5234375 1635.81323242 C-9 1637 -9 1637 -11.47705078 1636.36254883 C-12.30962402 1635.91290771 -13.14219727 1635.4632666 -14 1635 C-14.8544873 1634.56905029 -15.70897461 1634.13810059 -16.58935547 1633.6940918 C-17.50604004 1633.20078369 -18.42272461 1632.70747559 -19.3671875 1632.19921875 C-20.40528564 1631.64121582 -21.44338379 1631.08321289 -22.51293945 1630.50830078 C-23.62241943 1629.90743652 -24.73189941 1629.30657227 -25.875 1628.6875 C-27.61559692 1627.74753174 -27.61559692 1627.74753174 -29.39135742 1626.78857422 C-37.68687658 1622.29834883 -45.91522176 1617.69518407 -54.11425781 1613.03125 C-61.75209492 1608.69056438 -69.42987126 1604.42540995 -77.125 1600.1875 C-77.73282318 1599.85269623 -78.34064636 1599.51789246 -78.96688843 1599.17294312 C-82.06734146 1597.46542869 -85.16828953 1595.75881588 -88.26953125 1594.05273438 C-94.39036235 1590.68523767 -100.50784298 1587.31166489 -106.625 1583.9375 C-107.22580383 1583.60616058 -107.82660767 1583.27482117 -108.44561768 1582.93344116 C-118.253722 1577.52375892 -128.04760955 1572.08880578 -137.83642578 1566.64428711 C-146.04816832 1562.07895072 -154.27153099 1557.53508321 -162.5 1553 C-172.95739601 1547.23645383 -183.40092809 1541.44854703 -193.8359375 1535.64453125 C-202.04786791 1531.07915735 -210.27142476 1526.53526792 -218.5 1522 C-233.46481201 1513.75137008 -248.40108761 1505.45176762 -263.33398438 1497.14550781 C-276.65412965 1489.73719998 -289.98400453 1482.34716501 -303.3324585 1474.99002075 C-313.17879604 1469.5627363 -323.01046373 1464.10951959 -332.8359375 1458.64453125 C-341.04786733 1454.07915767 -349.27137173 1449.53517099 -357.5 1445 C-367.95739601 1439.23645383 -378.40092809 1433.44854703 -388.8359375 1427.64453125 C-397.04786791 1423.07915735 -405.27142476 1418.53526792 -413.5 1414 C-428.46481201 1405.75137008 -443.40108761 1397.45176762 -458.33398438 1389.14550781 C-471.65412965 1381.73719998 -484.98400453 1374.34716501 -498.3324585 1366.99002075 C-508.17879604 1361.5627363 -518.01046373 1356.10951959 -527.8359375 1350.64453125 C-536.04786733 1346.07915767 -544.27137173 1341.53517099 -552.5 1337 C-562.95739601 1331.23645383 -573.40092809 1325.44854703 -583.8359375 1319.64453125 C-592.04786805 1315.07915727 -600.27143681 1310.53529 -608.5 1306 C-618.29991237 1300.59814059 -628.09238887 1295.18313456 -637.875 1289.75 C-638.99197266 1289.12996094 -640.10894531 1288.50992187 -641.25976562 1287.87109375 C-642.30583984 1287.28972656 -643.35191406 1286.70835938 -644.4296875 1286.109375 C-645.79456299 1285.35092285 -645.79456299 1285.35092285 -647.18701172 1284.57714844 C-648.11529785 1284.05668945 -649.04358398 1283.53623047 -650 1283 C-651.17724402 1282.49456514 -652.35448804 1281.98913027 -653.56740612 1281.4683792 C-655.75249061 1280.2033033 -656.7909182 1279.48600171 -657.79652942 1277.14850143 C-658.27438145 1274.73763662 -658.53304119 1272.37850895 -658.73449039 1269.92878437 C-658.83726505 1269.00156779 -658.9400397 1268.0743512 -659.04592874 1267.11903714 C-659.384575 1264.00249832 -659.67767928 1260.88325591 -659.97242737 1257.76228333 C-660.20927416 1255.51587952 -660.44958987 1253.26983915 -660.69310814 1251.02414876 C-661.21371478 1246.19346501 -661.71825489 1241.36146343 -662.21251607 1236.52801538 C-663.3761348 1225.26164065 -664.72447955 1214.01679437 -666.04979251 1202.76854186 C-666.76538146 1196.67200841 -667.46879966 1190.57408363 -668.17165803 1184.47607144 C-668.50046706 1181.62335097 -668.82965905 1178.77067473 -669.15882594 1175.91799554 C-669.32743976 1174.45667152 -669.49603254 1172.99534508 -669.6646048 1171.53401627 C-670.55793781 1163.78989707 -671.45266068 1156.04593855 -672.34737808 1148.30197919 C-674.00492293 1133.95526958 -675.66144004 1119.60844148 -677.31733513 1105.26154137 C-678.97257471 1090.92033927 -680.62827585 1076.57919058 -682.28454781 1062.23810768 C-682.3891579 1061.33232202 -682.49376799 1060.42653636 -682.60154808 1059.49330264 C-683.02685708 1055.81069922 -683.4521693 1052.12809617 -683.87748573 1048.4454936 C-687.75332388 1014.88654043 -691.62810062 981.3274648 -695.50219727 947.76831055 C-698.97066214 917.72292761 -702.43965104 887.67760527 -705.90945728 857.63237722 C-706.23847875 854.78336282 -706.56749848 851.93434823 -706.89651768 849.08533357 C-707.7718142 841.50604413 -708.64711372 833.92675503 -709.52241626 826.34746628 C-715.26031066 776.66273824 -720.99798347 726.97798483 -726.73147022 677.29274793 C-727.05133864 674.52083438 -727.37120999 671.74892116 -727.69108211 668.97700803 C-729.48537466 653.42820124 -731.27965396 637.87939292 -733.07379696 622.33056887 C-738.0453674 579.24483877 -743.02071779 536.15954964 -748.0042426 493.0752005 C-748.39497068 489.69720047 -748.78569562 486.31920007 -749.17641735 482.9411993 C-749.2725145 482.1103923 -749.36861164 481.2795853 -749.46762082 480.42360233 C-750.88472361 468.17182598 -752.30102366 455.91995706 -753.71656513 443.66800022 C-753.80737043 442.88205707 -753.89817573 442.09611391 -753.99173271 441.28635429 C-754.89148305 433.4986616 -755.79111631 425.71095539 -756.69058992 417.92323073 C-757.12854404 414.13142695 -757.56653429 410.33962735 -758.00454903 406.54783058 C-758.13328123 405.43341979 -758.13328123 405.43341979 -758.26461409 404.29649566 C-759.62537 392.51741805 -760.98885461 380.73865791 -762.35348936 368.96002911 C-763.69305089 357.39739974 -765.02978008 345.8344464 -766.36365332 334.27115937 C-767.07647674 328.09253285 -767.79060574 321.91406458 -768.50825429 315.73599648 C-769.15937291 310.13053384 -769.80687095 304.52466563 -770.45140762 298.91844247 C-770.68432461 296.89825855 -770.91859764 294.87823044 -771.15435158 292.85837563 C-771.47305508 290.12619125 -771.78686452 287.3934877 -772.09943485 284.66059589 C-772.19203811 283.87699929 -772.28464137 283.09340268 -772.38005079 282.28606073 C-772.88414869 277.82443975 -773.08542171 273.49030597 -773 269 C-754.0472414 261.99883115 -735.04983531 255.14049347 -715.99282837 248.42868042 C-708.89184746 245.92763117 -701.79355513 243.41896431 -694.6953125 240.91015625 C-693.98146456 240.65789843 -693.26761662 240.4056406 -692.53213692 240.1457386 C-678.77740287 235.28427907 -665.04127178 230.37180602 -651.3125 225.4375 C-632.22482618 218.5780693 -613.1181384 211.77390984 -594 205 C-574.81984693 198.20396869 -555.65056476 191.37910355 -536.5 184.5 C-517.34943428 177.62089611 -498.18010023 170.79618198 -479 164 C-459.4659314 157.07833744 -439.94261683 150.12796573 -420.4375 143.125 C-404.52929617 137.41347041 -388.61554429 131.71848091 -372.6875 126.0625 C-356.01484207 120.1417208 -339.34893167 114.20230051 -322.6875 108.25 C-321.51128082 107.82983612 -320.33506165 107.40967224 -319.12319946 106.97677612 C-307.28295752 102.74718751 -295.44322547 98.51617449 -283.60418701 94.28321838 C-277.86129698 92.22999672 -272.11820741 90.17733371 -266.375 88.125 C-265.23166199 87.71641754 -264.08832397 87.30783508 -262.91033936 86.88687134 C-243.56557567 79.97521529 -224.20708335 73.10273196 -204.84489059 66.2401123 C-184.92547845 59.17977964 -165.02102726 52.07888509 -145.13043213 44.93768311 C-130.32453792 39.62207607 -115.51181541 34.32652052 -100.6875 29.0625 C-83.70295236 23.03108787 -66.72488079 16.98169153 -49.75113297 10.91996384 C-47.89600575 10.25750112 -46.04082241 9.59519558 -44.18563843 8.93289185 C-40.7043576 7.69000131 -37.22324318 6.44664596 -33.7421875 5.203125 C-32.71699509 4.83712692 -31.69180267 4.47112885 -30.63554382 4.09403992 C-29.65866104 3.74493057 -28.68177826 3.39582123 -27.67529297 3.03613281 C-26.25455475 2.54095154 -26.25455475 2.54095154 -24.80511475 2.0357666 C-22.91537122 1.33799364 -21.04964793 0.57189098 -19.21295166 -0.25549316 C-11.8159659 -3.45814306 -7.42713044 -2.83478706 0 0 Z " fill="#DD0031" transform="translate(1034,248)"/>
<path d="M0 0 C4.20290064 0.57091905 8.05405335 1.18974883 12.04663086 2.63208008 C13.45988396 3.13698219 13.45988396 3.13698219 14.90168762 3.65208435 C15.91252914 4.02084183 16.92337067 4.3895993 17.96484375 4.76953125 C19.04452927 5.15726212 20.12421478 5.54499298 21.23661804 5.94447327 C24.80580462 7.22772489 28.37157722 8.52020963 31.9375 9.8125 C34.46182283 10.72158129 36.98634974 11.63006967 39.51123047 12.53759766 C44.0936577 14.18534404 48.67531766 15.83518966 53.2559433 17.48793793 C64.56439681 21.56802667 75.88486235 25.61431835 87.20739746 29.65515137 C90.65837291 30.88691183 94.10899882 32.11964748 97.55957031 33.35253906 C115.75077041 39.85038079 133.95559856 46.30945513 152.16269684 52.76256561 C171.69698249 59.68625035 191.21618381 66.65077337 210.72103882 73.65701294 C228.79829958 80.14931322 246.89526362 86.58485713 265 93 C284.5340686 99.92166256 304.05738317 106.87203427 323.5625 113.875 C339.47070383 119.58652959 355.38445571 125.28151909 371.3125 130.9375 C387.98515793 136.8582792 404.65106833 142.79769949 421.3125 148.75 C422.48871918 149.17016388 423.66493835 149.59032776 424.87680054 150.02322388 C436.71704248 154.25281249 448.55677453 158.48382551 460.39581299 162.71678162 C466.13870302 164.77000328 471.88179259 166.82266629 477.625 168.875 C478.76833801 169.28358246 479.91167603 169.69216492 481.08966064 170.11312866 C500.43442433 177.02478471 519.79291665 183.89726804 539.15510941 190.7598877 C559.07452155 197.82022036 578.97897274 204.92111491 598.86956787 212.06231689 C613.67546237 217.37792403 628.48821146 222.67340344 643.3125 227.9375 C669.55413506 237.25676617 695.779183 246.62233449 722 256 C723.56862793 256.56089325 723.56862793 256.56089325 725.16894531 257.13311768 C730.88664203 259.17769263 736.6038427 261.22364172 742.32012939 263.27215576 C744.0090701 263.87725965 745.69815462 264.4819623 747.38739014 265.08624268 C749.67276128 265.90393369 751.95755905 266.72320538 754.2421875 267.54296875 C754.9069812 267.78048355 755.5717749 268.01799835 756.25671387 268.26271057 C758.5603477 269.09082217 760.80825375 269.90412688 763 271 C762.36484799 285.02401742 760.74105541 298.90785857 759.11611938 312.84570312 C758.813984 315.46417639 758.51218243 318.08268621 758.21078527 320.70124435 C757.55632298 326.3814026 756.89878284 332.06119779 756.2391758 337.7407608 C755.25650902 346.20217934 754.27870452 354.66415494 753.30185752 363.12624708 C751.64908174 377.44250028 749.99241242 391.75830041 748.3335762 406.07385254 C746.66888827 420.44007367 745.00607709 434.80651018 743.3455925 449.17321777 C743.18903256 450.52778294 743.18903256 450.52778294 743.0293098 451.90971306 C742.49830563 456.50408023 741.96733493 461.09845127 741.43637793 465.69282389 C737.65912264 498.37697764 733.87808395 531.06069271 730.09472656 563.74414062 C726.50763129 594.73225042 722.92168233 625.72049234 719.33789062 656.70898438 C719.17569653 658.11144555 719.17569653 658.11144555 719.01022579 659.54223928 C717.376504 673.66877239 715.74291517 687.79532088 714.109375 701.921875 C714.00153764 702.85443094 713.89370028 703.78698687 713.78259512 704.74780208 C713.01947719 711.34709592 712.25636383 717.94639029 711.4932518 724.54568481 C711.38534637 725.47883588 711.27744094 726.41198694 711.16626564 727.37341531 C710.83937697 730.20030293 710.51248864 733.0271906 710.18560052 735.85407829 C710.02383277 737.25302517 710.02383277 737.25302517 709.85879698 738.68023361 C709.31457836 743.38657663 708.77036531 748.0929203 708.2261624 752.79926515 C705.83772183 773.45483523 703.44899557 794.1103722 701.05939484 814.76580811 C691.66578942 895.96322122 682.28328939 977.16188349 672.94065501 1058.36517906 C672.52090869 1062.01341097 672.1011287 1065.661639 671.68134782 1069.30986694 C667.81264551 1102.93201457 663.94497141 1136.55427999 660.08289322 1170.17718923 C658.65070862 1182.64545542 657.21756391 1195.11361102 655.7836962 1207.58168375 C654.88262593 1215.41731492 653.9825097 1223.25305444 653.08373016 1231.0889487 C652.41605424 1236.90928188 651.74683688 1242.72943713 651.07701556 1248.54952383 C650.80639825 1250.90319512 650.53630739 1253.25692701 650.26678534 1255.61072397 C649.902222 1258.7939599 649.53579471 1261.97697585 649.16889 1265.15994263 C649.06401948 1266.07969372 648.95914896 1266.99944481 648.85110055 1267.94706714 C648.57884397 1270.29962755 648.29310288 1272.64996005 648 1275 C647.78895297 1276.73027844 647.78895297 1276.73027844 647.57364237 1278.49551201 C647 1281 647 1281 644.65283203 1282.91186523 C643.61497559 1283.45528564 642.57711914 1283.99870605 641.5078125 1284.55859375 C640.93936615 1284.86422745 640.3709198 1285.16986115 639.7852478 1285.48475647 C637.90821168 1286.48863592 636.01714175 1287.46243758 634.125 1288.4375 C632.80152751 1289.13965701 631.47927588 1289.84411961 630.15820312 1290.55078125 C627.43701583 1292.00442593 624.71109071 1293.44853617 621.98144531 1294.88623047 C616.10070232 1297.99453209 610.30378421 1301.25065871 604.5 1304.5 C602.27133689 1305.74048846 600.04216584 1306.98006477 597.8125 1308.21875 C596.69875 1308.8375 595.585 1309.45625 594.4375 1310.09375 C587.85397194 1313.74461556 581.26000095 1317.37654716 574.66699219 1321.01025391 C565.93519182 1325.82322227 557.21331002 1330.65360391 548.5 1335.5 C539.17698064 1340.68552014 529.84295489 1345.85052972 520.5 1351 C506.64889395 1358.6347533 492.82157204 1366.31190237 479 1374 C464.56889842 1382.02714174 450.12972323 1390.03899193 435.6675415 1398.00997925 C426.93555554 1402.82303501 418.21348898 1407.65350437 409.5 1412.5 C399.5672747 1418.02464229 389.62101873 1423.52413752 379.66699219 1429.01025391 C370.93519182 1433.82322227 362.21331002 1438.65360391 353.5 1443.5 C344.17698064 1448.68552014 334.84295489 1453.85052972 325.5 1459 C311.64889395 1466.6347533 297.82157204 1474.31190237 284 1482 C269.56889842 1490.02714174 255.12972323 1498.03899193 240.6675415 1506.00997925 C231.93555554 1510.82303501 223.21348898 1515.65350437 214.5 1520.5 C204.5672747 1526.02464229 194.62101873 1531.52413752 184.66699219 1537.01025391 C175.93519182 1541.82322227 167.21331002 1546.65360391 158.5 1551.5 C149.17698064 1556.68552014 139.84295489 1561.85052972 130.5 1567 C116.64889395 1574.6347533 102.82157204 1582.31190237 89 1590 C75.17842538 1597.68809906 61.35081504 1605.36471619 47.5 1613 C38.21995201 1618.11650683 28.94222277 1623.23715525 19.67504883 1628.37695312 C17.91339316 1629.35371271 16.15104012 1630.32921421 14.38867188 1631.3046875 C13.32970703 1631.8925 12.27074219 1632.4803125 11.1796875 1633.0859375 C10.24882324 1633.6020459 9.31795898 1634.1181543 8.35888672 1634.64990234 C6.5305464 1635.69634427 4.75281798 1636.83145468 3 1638 C2.01 1638 1.02 1638 0 1638 C0 1431.09 0 1224.18 0 1011 C66.66 1011 133.32 1011 202 1011 C209.26259183 1028.55126359 216.48991182 1046.09535199 223.48828125 1063.75 C224.35092061 1065.92125532 225.21378654 1068.09242064 226.07685852 1070.26350403 C227.8906325 1074.82685598 229.70337184 1079.39061668 231.51519775 1083.95474243 C236.27930551 1095.95511401 241.05104137 1107.95245222 245.82421875 1119.94921875 C246.30045181 1121.1462763 246.77668488 1122.34333385 247.26734924 1123.57666588 C257.5590529 1149.44154707 267.9415481 1175.26942665 278.3684082 1201.08007812 C283.3939243 1213.52198332 288.41559164 1225.96523584 293.3359375 1238.44921875 C293.9032811 1239.87957207 293.9032811 1239.87957207 294.48208618 1241.33882141 C294.81848114 1242.19727158 295.1548761 1243.05572174 295.50146484 1243.94018555 C295.9393483 1245.05299141 295.9393483 1245.05299141 296.38607788 1246.1882782 C297 1248 297 1248 297 1250 C355.74 1250 414.48 1250 475 1250 C471.04 1241.42 467.08 1232.84 463 1224 C460.46257984 1218.27419849 457.92950586 1212.5497217 455.43261719 1206.80664062 C449.06061821 1192.15633828 442.57998896 1177.55795191 436 1163 C429.5303114 1148.6830238 423.16948325 1134.32205175 416.875 1119.92724609 C411.3288458 1107.24860278 405.69830201 1094.61095571 400 1082 C393.53073845 1067.68282785 387.16948577 1053.32205752 380.875 1038.92724609 C375.3288458 1026.24860278 369.69830201 1013.61095571 364 1001 C357.53073845 986.68282785 351.16948577 972.32205752 344.875 957.92724609 C339.3288458 945.24860278 333.69830201 932.61095571 328 920 C321.53073845 905.68282785 315.16948577 891.32205752 308.875 876.92724609 C303.3288458 864.24860278 297.69830201 851.61095571 292 839 C285.53073845 824.68282785 279.16948577 810.32205752 272.875 795.92724609 C267.3288458 783.24860278 261.69830201 770.61095571 256 758 C249.53073845 743.68282785 243.16948577 729.32205752 236.875 714.92724609 C231.3288458 702.24860278 225.69830201 689.61095571 220 677 C213.53073845 662.68282785 207.16948577 648.32205752 200.875 633.92724609 C195.3288458 621.24860278 189.69830201 608.61095571 184 596 C177.53073845 581.68282785 171.16948577 567.32205752 164.875 552.92724609 C159.3288458 540.24860278 153.69830201 527.61095571 148 515 C141.53073845 500.68282785 135.16948577 486.32205752 128.875 471.92724609 C123.3288458 459.24860278 117.69830201 446.61095571 112 434 C105.53073845 419.68282785 99.16948577 405.32205752 92.875 390.92724609 C87.3288458 378.24860278 81.69830201 365.61095571 76 353 C69.53073845 338.68282785 63.16948577 324.32205752 56.875 309.92724609 C51.32884485 297.24860061 45.69815688 284.61102274 40 272 C33.02057233 256.55202497 26.16153624 241.05436638 19.36547852 225.52490234 C18.63300453 223.85122417 17.90050172 222.17755861 17.16796875 220.50390625 C16.81370316 219.69443542 16.45943756 218.8849646 16.09443665 218.05096436 C12.24993505 209.27444185 8.3536858 200.52109584 4.43798828 191.77612305 C3.99310059 190.78008057 3.54821289 189.78403809 3.08984375 188.7578125 C2.70691162 187.9033252 2.32397949 187.04883789 1.92944336 186.16845703 C0.10560864 181.91332176 -0.13932825 178.32216784 -0.12025452 173.76777649 C-0.12110894 173.02609024 -0.12196337 172.28440399 -0.12284368 171.52024239 C-0.12449438 169.02820039 -0.11898379 166.53622529 -0.11352539 164.04418945 C-0.1132434 162.26051841 -0.11340148 160.47684725 -0.1139679 158.69317627 C-0.11425542 153.84432488 -0.10836585 148.99549811 -0.10139394 144.14665246 C-0.09515302 139.08175293 -0.09455601 134.01685286 -0.09336853 128.95195007 C-0.0902574 119.35785898 -0.08204693 109.76377925 -0.07201904 100.16969317 C-0.06085115 89.24843027 -0.05534575 78.32716683 -0.05032361 67.40589964 C-0.03986415 44.93726012 -0.02226891 22.4686307 0 0 Z " fill="#C3002F" transform="translate(1024,246)"/>
<path d="M0 0 C0.66 0 1.32 0 2 0 C11.1024862 20.1220555 20.15211273 40.26451346 29 60.5 C34.91935512 74.03716614 40.91621481 87.53592853 47 101 C53.46926155 115.31717215 59.83051423 129.67794248 66.125 144.07275391 C71.6711542 156.75139722 77.30169799 169.38904429 83 182 C89.46926155 196.31717215 95.83051423 210.67794248 102.125 225.07275391 C107.6711542 237.75139722 113.30169799 250.38904429 119 263 C125.46926155 277.31717215 131.83051423 291.67794248 138.125 306.07275391 C143.6711542 318.75139722 149.30169799 331.38904429 155 344 C161.46926155 358.31717215 167.83051423 372.67794248 174.125 387.07275391 C179.6711542 399.75139722 185.30169799 412.38904429 191 425 C197.46926155 439.31717215 203.83051423 453.67794248 210.125 468.07275391 C215.6711542 480.75139722 221.30169799 493.38904429 227 506 C233.46926155 520.31717215 239.83051423 534.67794248 246.125 549.07275391 C251.6711542 561.75139722 257.30169799 574.38904429 263 587 C269.46926155 601.31717215 275.83051423 615.67794248 282.125 630.07275391 C287.6711542 642.75139722 293.30169799 655.38904429 299 668 C305.46926155 682.31717215 311.83051423 696.67794248 318.125 711.07275391 C323.6711542 723.75139722 329.30169799 736.38904429 335 749 C341.46926155 763.31717215 347.83051423 777.67794248 354.125 792.07275391 C359.6711542 804.75139722 365.30169799 817.38904429 371 830 C377.46926155 844.31717215 383.83051423 858.67794248 390.125 873.07275391 C395.6711542 885.75139722 401.30169799 898.38904429 407 911 C413.46926155 925.31717215 419.83051423 939.67794248 426.125 954.07275391 C432.0322152 967.57679144 438.04275088 981.03106002 444.11291504 994.46255493 C450.84597526 1009.36626772 457.44613477 1024.32601616 463.98828125 1039.31445312 C464.6951712 1040.93235341 465.40219834 1042.55019376 466.109375 1044.16796875 C466.44376587 1044.93382294 466.77815674 1045.69967712 467.12268066 1046.48873901 C469.64583369 1052.24637279 472.27583834 1057.94594558 474.97753906 1063.62231445 C476 1066 476 1066 476 1068 C417.26 1068 358.52 1068 298 1068 C291.4 1051.5 284.8 1035 278 1018 C273.45179562 1006.66533394 273.45179562 1006.66533394 268.89640617 995.33357048 C267.66995173 992.28567743 266.44412453 989.23753259 265.21839905 986.18934631 C263.45773334 981.81089231 261.69689631 977.43250728 259.9359436 973.0541687 C252.06133311 953.47375123 244.19515958 933.88993985 236.32826996 914.30641937 C235.02487683 911.06192509 233.72134565 907.81748631 232.41778564 904.57305908 C228.1045832 893.83738338 223.79360497 883.10082335 219.48933983 872.36156082 C217.73415312 867.98235299 215.9778738 863.60359212 214.21862793 859.22601318 C212.60093186 855.20051152 210.98642791 851.17374573 209.37457085 847.14590263 C208.79013455 845.68706389 208.20452467 844.22869468 207.61766243 842.77083015 C206.826967 840.80607798 206.04048723 838.8396923 205.25512695 836.87280273 C204.8163472 835.77878647 204.37756744 834.6847702 203.92549133 833.55760193 C203 831 203 831 203 829 C69.02 829 -64.96 829 -203 829 C-203.33 830.65 -203.66 832.3 -204 834 C-204.49737592 835.45932672 -205.03390104 836.90577837 -205.60466003 838.33799744 C-205.93599914 839.17543676 -206.26733824 840.01287609 -206.60871792 840.87569237 C-206.97269208 841.78288332 -207.33666624 842.69007427 -207.71166992 843.62475586 C-208.09633706 844.59324778 -208.4810042 845.56173969 -208.87732792 846.55957985 C-210.15756427 849.7796679 -211.44394973 852.99726119 -212.73046875 856.21484375 C-213.63336099 858.48155506 -214.53592243 860.74839816 -215.43817139 863.0153656 C-217.60168799 868.44812793 -219.76936236 873.87921674 -221.93921626 879.30945081 C-223.6897928 883.69066666 -225.43841444 888.07265829 -227.18582153 892.45513916 C-238.47145775 920.75800378 -249.77988766 949.05020557 -261.34326172 977.2409668 C-270.0862818 998.56743519 -278.61958397 1019.97774665 -287.15959549 1041.38611794 C-288.34363273 1044.35413293 -289.52817618 1047.32194582 -290.71269608 1050.28976822 C-291.53555619 1052.35245982 -292.35734781 1054.4155748 -293.17904663 1056.47872925 C-293.67442013 1057.72053545 -294.16983012 1058.96232711 -294.6652832 1060.20410156 C-295.09412308 1061.28032776 -295.52296295 1062.35655396 -295.96479797 1063.46539307 C-297 1066 -297 1066 -298 1068 C-356.74 1068 -415.48 1068 -476 1068 C-465.7868891 1044.16940789 -465.7868891 1044.16940789 -461.1875 1034 C-460.07609723 1031.53157309 -458.9652762 1029.06289375 -457.85546875 1026.59375 C-457.5587326 1025.93379028 -457.26199646 1025.27383057 -456.95626831 1024.59387207 C-452.60633934 1014.90982621 -448.30756896 1005.20293723 -444 995.5 C-438.02840405 982.05136838 -432.04226491 968.60981796 -426.01171875 955.1875 C-420.9774142 943.97183416 -415.98935159 932.73571752 -411 921.5 C-405.02804773 908.0515253 -399.04226582 894.60981998 -393.01171875 881.1875 C-387.9774142 869.97183416 -382.98935159 858.73571752 -378 847.5 C-372.02804773 834.0515253 -366.04226582 820.60981998 -360.01171875 807.1875 C-354.9774142 795.97183416 -349.98935159 784.73571752 -345 773.5 C-339.02804773 760.0515253 -333.04226582 746.60981998 -327.01171875 733.1875 C-321.9774142 721.97183416 -316.98935159 710.73571752 -312 699.5 C-306.02445633 686.04343769 -300.03533171 672.59353176 -294.00073242 659.16333008 C-288.63692855 647.21441248 -283.33005167 635.2402897 -278.01715088 623.26867676 C-271.64698087 608.91789544 -265.22175246 594.59298346 -258.7611084 580.28274536 C-252.72931085 566.91516991 -246.81503659 553.49881201 -240.9418335 540.06091309 C-234.84132702 526.11035597 -228.60257461 512.22673046 -222.30252075 498.36529541 C-216.43609355 485.4524839 -210.67702425 472.49713574 -205 459.5 C-198.8913504 445.51638264 -192.68234779 431.58264658 -186.375 417.6875 C-180.55919741 404.87381872 -174.76860357 392.05045731 -169.0625 379.1875 C-168.74507843 378.47200989 -168.42765686 377.75651978 -168.10061646 377.01934814 C-166.45097912 373.3000653 -164.80243554 369.58029872 -163.15429688 365.86035156 C-159.04697783 356.59146663 -154.9293093 347.32717257 -150.8125 338.0625 C-150.3817215 337.09291351 -149.95094299 336.12332703 -149.5071106 335.12435913 C-144.03149627 322.80103554 -138.53743234 310.48641483 -133.01098633 298.18579102 C-127.97684139 286.97073295 -122.98909997 275.73515087 -118 264.5 C-112.02445633 251.04343769 -106.03533171 237.59353176 -100.00073242 224.16333008 C-94.63692855 212.21441248 -89.33005167 200.2402897 -84.01715088 188.26867676 C-77.64698087 173.91789544 -71.22175246 159.59298346 -64.7611084 145.28274536 C-58.72931085 131.91516991 -52.81503659 118.49881201 -46.9418335 105.06091309 C-40.84693268 91.12317493 -34.61511679 77.25172286 -28.31964111 63.40356445 C-21.28503931 47.92357231 -14.41170229 32.37632416 -7.609375 16.79296875 C-7.06495506 15.54675247 -7.06495506 15.54675247 -6.50953674 14.27536011 C-5.83392599 12.72808171 -5.15932677 11.18036107 -4.48594666 9.6321106 C-3.06668765 6.37986562 -1.63693519 3.14940413 0 0 Z " fill="#FEFEFE" transform="translate(1023,428)"/>
<path d="M0 0 C0.66 0 1.32 0 2 0 C2.42595459 1.02730225 2.85190918 2.05460449 3.29077148 3.11303711 C3.57695343 3.80323944 3.86313538 4.49344177 4.1579895 5.20455933 C4.8130832 6.78449364 5.4681734 8.3644294 6.1232605 9.94436646 C8.00486322 14.48239428 9.88653316 19.02039421 11.76831055 23.55834961 C15.58381289 32.75971852 19.39863513 41.96136728 23.2109375 51.1640625 C31.21173071 70.47528286 39.23586401 89.77662116 47.27993774 109.06985474 C53.38084443 123.70314349 59.46438048 138.34349496 65.53173828 152.99072266 C71.33602116 167.00153291 77.16379723 181.00245839 83 195 C89.18203844 209.82699345 95.35221206 224.6587717 101.5 239.5 C108.99800181 257.60020362 116.52772072 275.68711505 124.06741333 293.76998901 C124.84752815 295.64149301 125.62721794 297.51317423 126.40646362 299.38504028 C128.53408266 304.49407387 130.67181081 309.5986453 132.82080078 314.69873047 C133.28454605 315.80268661 133.74829132 316.90664276 134.22608948 318.04405212 C135.1248549 320.18325322 136.02639677 322.32129041 136.93101501 324.45802307 C137.332845 325.41603317 137.73467499 326.37404327 138.14868164 327.36108398 C138.68580528 328.63458961 138.68580528 328.63458961 139.23377991 329.93382263 C140 332 140 332 140 334 C48.26 334 -43.48 334 -138 334 C-136.05051379 328.15154136 -134.06696658 322.50131059 -131.69140625 316.83984375 C-131.37300278 316.07378311 -131.0545993 315.30772247 -130.72654724 314.51844788 C-129.67485091 311.99021009 -128.61868007 309.46386759 -127.5625 306.9375 C-126.80895857 305.1283744 -126.05571028 303.31912668 -125.30273438 301.50976562 C-123.28739917 296.66914103 -121.26827217 291.83010689 -119.24835205 286.99139404 C-117.17257984 282.01727428 -115.10002312 277.04181539 -113.02734375 272.06640625 C-110.50069883 266.00161416 -107.97384268 259.9369109 -105.44555664 253.87280273 C-100.11571577 241.08791794 -94.8008964 228.29691081 -89.5 215.5 C-82.92938826 199.63786536 -76.33156876 183.78719431 -69.72427368 167.94030762 C-63.50959024 153.03413358 -57.31256465 138.120764 -51.13134766 123.20068359 C-46.26773202 111.46146801 -41.39101017 99.72782771 -36.5 88 C-24.27720783 58.68999377 -12.13531835 29.34631285 0 0 Z " fill="#DD0031" transform="translate(1023,775)"/>
<path d="M0 0 C3 1 3 1 4.00564575 2.66662598 C4.30300629 3.39345581 4.60036682 4.12028564 4.90673828 4.86914062 C5.42574203 6.11449585 5.42574203 6.11449585 5.95523071 7.38500977 C6.5071962 8.75677368 6.5071962 8.75677368 7.0703125 10.15625 C7.46350677 11.10814209 7.85670105 12.06003418 8.2618103 13.04077148 C9.55979735 16.18973828 10.84225996 19.34479514 12.125 22.5 C13.02950862 24.70162014 13.93511963 26.90278769 14.84179688 29.10351562 C16.68926005 33.59158084 18.53110305 38.0818859 20.36816406 42.57421875 C23.71103451 50.7445348 27.09505068 58.8975952 30.48236084 67.04956055 C31.51052606 69.52534638 32.53703745 72.0018114 33.56298828 74.47851562 C39.44634935 88.68095511 45.35973387 102.87082071 51.27572632 117.05969238 C57.49040976 131.96586642 63.68743535 146.879236 69.86865234 161.79931641 C74.73226787 173.53853173 79.60889548 185.2722118 84.5 197 C89.74515925 209.57673322 94.97194818 222.16096085 100.1875 234.75 C107.78988573 253.09946785 115.4230385 271.43604298 123.06672668 289.76834106 C123.84709575 291.64045544 124.62704008 293.51274692 125.40653992 295.38522339 C127.53413347 300.49419596 129.67183648 305.59870623 131.82080078 310.69873047 C132.28454605 311.80268661 132.74829132 312.90664276 133.22608948 314.04405212 C134.1248549 316.18325322 135.02639677 318.32129041 135.93101501 320.45802307 C136.332845 321.41603317 136.73467499 322.37404327 137.14868164 323.36108398 C137.50676407 324.21008774 137.8648465 325.05909149 138.23377991 325.93382263 C139 328 139 328 139 330 C93.13 330 47.26 330 0 330 C0 221.1 0 112.2 0 0 Z " fill="#C3002F" transform="translate(1024,779)"/>
</svg>
